<?xml version="1.0" standalone="no"?>
<!DOCTYPE svg PUBLIC "-//W3C//DTD SVG 20010904//EN"
 "http://www.w3.org/TR/2001/REC-SVG-20010904/DTD/svg10.dtd">
<svg version="1.0" xmlns="http://www.w3.org/2000/svg"
 width="500.000000pt" height="500.000000pt" viewBox="0 0 500.000000 500.000000"
 preserveAspectRatio="xMidYMid meet">

<g transform="translate(0.000000,500.000000) scale(0.100000,-0.100000)"
fill="#000000" stroke="none">
<path d="M2520 3293 c-19 -6 -44 -12 -56 -12 -11 -1 -30 -12 -42 -25 -11 -14
-37 -28 -57 -32 -19 -3 -41 -15 -49 -25 -7 -10 -31 -25 -54 -33 -23 -8 -52
-24 -64 -36 -12 -11 -30 -20 -39 -20 -10 0 -30 -11 -46 -24 -15 -13 -44 -28
-64 -35 -20 -6 -44 -20 -53 -30 -10 -11 -33 -22 -52 -25 -18 -4 -38 -15 -43
-25 -5 -9 -29 -24 -53 -31 -24 -8 -53 -24 -66 -36 -12 -12 -38 -25 -57 -28
-19 -4 -39 -15 -45 -25 -5 -11 -24 -24 -41 -30 -29 -10 -32 -31 -4 -31 7 0 22
-11 32 -24 11 -13 33 -27 51 -31 18 -4 45 -17 60 -29 15 -13 38 -26 52 -30 32
-8 49 -22 83 -67 l27 -36 0 -228 c0 -259 6 -290 54 -301 17 -4 44 -17 59 -30
16 -13 37 -24 46 -24 10 0 35 -13 56 -30 21 -16 46 -30 55 -30 9 0 34 -13 55
-30 21 -16 46 -30 57 -30 10 0 29 -11 41 -24 13 -13 39 -27 59 -31 20 -4 46
-18 59 -31 31 -33 81 -32 121 1 16 14 38 25 47 25 10 0 35 14 56 30 21 17 48
30 60 30 12 0 32 11 45 25 13 14 41 30 62 35 21 6 49 22 62 35 14 14 36 25 50
25 14 0 35 10 46 23 12 12 40 27 63 32 31 8 43 17 48 35 4 14 7 136 8 272 1
210 3 249 16 260 9 7 26 23 38 35 19 18 95 52 120 53 4 0 16 -9 27 -20 19 -19
20 -33 20 -290 l0 -270 26 -10 c35 -14 77 -13 92 2 15 15 17 643 3 681 -7 17
-20 26 -44 31 -18 3 -43 17 -55 31 -12 14 -30 25 -41 25 -10 0 -33 10 -52 23
-19 12 -48 29 -66 36 -17 7 -39 21 -49 32 -9 10 -31 21 -49 25 -18 3 -42 17
-54 30 -12 14 -32 24 -46 24 -14 0 -37 11 -51 25 -13 13 -42 29 -64 35 -22 6
-44 18 -49 28 -5 10 -30 23 -55 30 -26 6 -50 20 -56 31 -5 11 -25 23 -44 26
-18 4 -45 18 -61 31 -15 13 -33 24 -39 24 -6 0 -22 6 -36 13 -20 10 -32 10
-60 0z m120 -186 c17 -15 40 -27 49 -27 10 0 37 -13 59 -30 23 -16 48 -30 56
-30 8 0 27 -11 43 -24 15 -13 44 -28 65 -35 20 -7 39 -18 42 -26 3 -8 26 -20
51 -26 25 -6 50 -19 55 -29 5 -10 22 -21 37 -25 33 -8 63 -33 63 -51 0 -8 -15
-21 -32 -30 -18 -9 -44 -26 -58 -39 -14 -12 -41 -28 -61 -34 -20 -7 -45 -21
-54 -31 -10 -11 -25 -20 -34 -20 -9 0 -36 -14 -60 -30 -24 -17 -52 -30 -62
-30 -11 0 -24 -9 -31 -20 -7 -11 -31 -25 -53 -31 -22 -6 -49 -19 -60 -29 -34
-30 -62 -40 -109 -40 -51 0 -92 13 -121 39 -11 10 -36 24 -57 30 -20 7 -39 18
-42 26 -3 8 -25 20 -50 26 -28 7 -48 18 -51 29 -4 12 -20 21 -44 25 -22 3 -49
17 -62 31 -12 13 -29 24 -36 24 -20 0 -77 30 -86 46 -4 8 -14 14 -22 14 -8 0
-22 11 -31 25 -16 24 -16 27 1 45 10 11 24 20 31 20 7 0 23 11 36 24 13 13 41
29 63 35 22 6 45 19 52 30 6 10 29 22 49 26 21 4 48 18 61 31 12 13 31 24 41
24 11 0 36 13 57 30 20 16 53 32 72 36 19 4 37 13 40 21 9 23 44 33 104 30 44
-2 64 -9 89 -30z m-440 -632 c13 -14 34 -25 47 -25 13 0 37 -13 55 -30 17 -16
41 -30 54 -30 13 0 39 -13 57 -30 19 -16 42 -30 51 -30 9 0 35 -8 56 -19 37
-18 40 -18 55 -1 9 10 29 20 44 23 16 3 42 17 59 31 16 15 37 26 45 26 9 0 28
11 44 24 16 14 43 28 59 32 16 3 39 17 52 30 30 32 106 34 122 5 13 -25 13
-271 0 -306 -6 -15 -24 -32 -43 -40 -19 -8 -39 -21 -46 -29 -7 -8 -29 -20 -49
-27 -20 -6 -46 -20 -57 -30 -12 -10 -36 -24 -55 -30 -19 -7 -48 -23 -63 -36
-16 -12 -37 -23 -47 -23 -10 0 -33 -12 -50 -27 l-32 -26 -52 26 c-29 15 -60
27 -68 27 -8 0 -24 9 -37 21 -12 12 -37 25 -55 30 -19 5 -44 20 -58 33 -13 13
-41 27 -61 31 -24 5 -44 16 -54 31 -8 13 -23 24 -33 24 -9 0 -29 9 -44 21
l-26 20 0 153 c0 105 4 156 12 164 7 7 31 12 53 12 31 0 47 -6 65 -25z"/>
</g>
</svg>
